<svg xmlns="http://www.w3.org/2000/svg" xmlns:xlink="http://www.w3.org/1999/xlink" width="48" zoomAndPan="magnify" viewBox="0 0 36 36.000001" height="48" preserveAspectRatio="xMidYMid meet" version="1.0"><defs><clipPath id="7d8e3e7ca5"><path d="M 0.488281 0 L 35.511719 0 L 35.511719 35.027344 L 0.488281 35.027344 Z M 0.488281 0 " clip-rule="nonzero"/></clipPath><clipPath id="ea15e18d0f"><path d="M 9 13 L 22 13 L 22 17 L 9 17 Z M 9 13 " clip-rule="nonzero"/></clipPath><clipPath id="3eafcc8f2e"><path d="M 9.277344 13.203125 L 21.699219 13.171875 L 21.707031 16.523438 L 9.289062 16.554688 Z M 9.277344 13.203125 " clip-rule="nonzero"/></clipPath><clipPath id="87577e2db1"><path d="M 0.125 0.078125 L 12.734375 0.078125 L 12.734375 3.578125 L 0.125 3.578125 Z M 0.125 0.078125 " clip-rule="nonzero"/></clipPath><clipPath id="7849dfa57d"><path d="M 0.277344 0.203125 L 12.699219 0.171875 L 12.707031 3.523438 L 0.289062 3.554688 Z M 0.277344 0.203125 " clip-rule="nonzero"/></clipPath><clipPath id="fef6df9d1c"><rect x="0" width="13" y="0" height="4"/></clipPath><clipPath id="43de32eb9c"><path d="M 9 15 L 13 15 L 13 27 L 9 27 Z M 9 15 " clip-rule="nonzero"/></clipPath><clipPath id="d4b40f944d"><path d="M 9.285156 15.945312 L 12.777344 15.933594 L 12.804688 26.535156 L 9.316406 26.542969 Z M 9.285156 15.945312 " clip-rule="nonzero"/></clipPath><clipPath id="442976c9eb"><path d="M 0.125 0.878906 L 3.863281 0.878906 L 3.863281 11.621094 L 0.125 11.621094 Z M 0.125 0.878906 " clip-rule="nonzero"/></clipPath><clipPath id="ded781d319"><path d="M 0.285156 0.945312 L 3.777344 0.933594 L 3.804688 11.535156 L 0.316406 11.542969 Z M 0.285156 0.945312 " clip-rule="nonzero"/></clipPath><clipPath id="8aaa8b3be6"><rect x="0" width="4" y="0" height="12"/></clipPath><clipPath id="1118883e26"><path d="M 9 17 L 22 17 L 22 22 L 9 22 Z M 9 17 " clip-rule="nonzero"/></clipPath><clipPath id="b9df259c25"><path d="M 9.292969 17.875 L 21.710938 17.84375 L 21.71875 21.210938 L 9.300781 21.242188 Z M 9.292969 17.875 " clip-rule="nonzero"/></clipPath><clipPath id="107fd9e787"><path d="M 0.125 0.746094 L 12.734375 0.746094 L 12.734375 4.25 L 0.125 4.25 Z M 0.125 0.746094 " clip-rule="nonzero"/></clipPath><clipPath id="97e0a4a282"><path d="M 0.292969 0.875 L 12.710938 0.84375 L 12.71875 4.210938 L 0.300781 4.242188 Z M 0.292969 0.875 " clip-rule="nonzero"/></clipPath><clipPath id="0104d73bae"><rect x="0" width="13" y="0" height="5"/></clipPath><clipPath id="5082174524"><path d="M 18 13 L 22 13 L 22 22 L 18 22 Z M 18 13 " clip-rule="nonzero"/></clipPath><clipPath id="6bd9b7ec2d"><path d="M 18.207031 13.179688 L 21.699219 13.171875 L 21.71875 21.210938 L 18.230469 21.21875 Z M 18.207031 13.179688 " clip-rule="nonzero"/></clipPath><clipPath id="db5bdbc4a6"><path d="M 0 0.078125 L 3.734375 0.078125 L 3.734375 8.25 L 0 8.25 Z M 0 0.078125 " clip-rule="nonzero"/></clipPath><clipPath id="895a9f77ef"><path d="M 0.207031 0.179688 L 3.699219 0.171875 L 3.71875 8.210938 L 0.230469 8.21875 Z M 0.207031 0.179688 " clip-rule="nonzero"/></clipPath><clipPath id="e2c79f35c9"><rect x="0" width="4" y="0" height="9"/></clipPath><clipPath id="1a97211931"><path d="M 9 22 L 25 22 L 25 27 L 9 27 Z M 9 22 " clip-rule="nonzero"/></clipPath><clipPath id="d3e60e2b77"><path d="M 9.304688 22.574219 L 24.25 22.53125 L 24.257812 26.503906 L 9.316406 26.542969 Z M 9.304688 22.574219 " clip-rule="nonzero"/></clipPath><clipPath id="0857c43d59"><path d="M 0.125 0.417969 L 15.304688 0.417969 L 15.304688 4.621094 L 0.125 4.621094 Z M 0.125 0.417969 " clip-rule="nonzero"/></clipPath><clipPath id="cb5f47e4f3"><path d="M 0.304688 0.574219 L 15.25 0.53125 L 15.257812 4.503906 L 0.316406 4.542969 Z M 0.304688 0.574219 " clip-rule="nonzero"/></clipPath><clipPath id="8dbfa8621b"><rect x="0" width="16" y="0" height="5"/></clipPath><clipPath id="dfba1c2b3c"><path d="M 23 11 L 27 11 L 27 27 L 23 27 Z M 23 11 " clip-rule="nonzero"/></clipPath><clipPath id="91ec967476"><path d="M 23.1875 11.121094 L 26.679688 11.113281 L 26.722656 26.519531 L 23.230469 26.53125 Z M 23.1875 11.121094 " clip-rule="nonzero"/></clipPath><clipPath id="a3a0d49424"><path d="M 0.136719 0 L 3.875 0 L 3.875 15.621094 L 0.136719 15.621094 Z M 0.136719 0 " clip-rule="nonzero"/></clipPath><clipPath id="74492f83a0"><path d="M 0.1875 0.121094 L 3.679688 0.113281 L 3.722656 15.519531 L 0.230469 15.53125 Z M 0.1875 0.121094 " clip-rule="nonzero"/></clipPath><clipPath id="41b8af431f"><rect x="0" width="4" y="0" height="16"/></clipPath><clipPath id="fb023008b2"><path d="M 9 8 L 27 8 L 27 12 L 9 12 Z M 9 8 " clip-rule="nonzero"/></clipPath><clipPath id="58ea4be85d"><path d="M 9.304688 8.53125 L 26.703125 8.484375 L 26.710938 11.835938 L 9.316406 11.882812 Z M 9.304688 8.53125 " clip-rule="nonzero"/></clipPath><clipPath id="ae94bfd213"><path d="M 0.125 0.40625 L 17.875 0.40625 L 17.875 3.910156 L 0.125 3.910156 Z M 0.125 0.40625 " clip-rule="nonzero"/></clipPath><clipPath id="769ea4b2a9"><path d="M 0.304688 0.53125 L 17.703125 0.484375 L 17.710938 3.835938 L 0.316406 3.882812 Z M 0.304688 0.53125 " clip-rule="nonzero"/></clipPath><clipPath id="fd8d383069"><rect x="0" width="18" y="0" height="4"/></clipPath></defs><g clip-path="url(#7d8e3e7ca5)"><path fill="#ffffff" d="M 0.488281 0 L 35.511719 0 L 35.511719 35.027344 L 0.488281 35.027344 Z M 0.488281 0 " fill-opacity="1" fill-rule="nonzero"/><path fill="#0022fe" d="M 0.488281 0 L 35.511719 0 L 35.511719 35.027344 L 0.488281 35.027344 Z M 0.488281 0 " fill-opacity="1" fill-rule="nonzero"/></g><g clip-path="url(#ea15e18d0f)"><g clip-path="url(#3eafcc8f2e)"><g transform="matrix(1, 0, 0, 1, 9, 13)"><g clip-path="url(#fef6df9d1c)"><g clip-path="url(#87577e2db1)"><g clip-path="url(#7849dfa57d)"><path fill="#fafbfd" d="M 0.277344 0.203125 L 12.703125 0.171875 L 12.710938 3.523438 L 0.289062 3.554688 Z M 0.277344 0.203125 " fill-opacity="1" fill-rule="nonzero"/></g></g></g></g></g></g><g clip-path="url(#43de32eb9c)"><g clip-path="url(#d4b40f944d)"><g transform="matrix(1, 0, 0, 1, 9, 15)"><g clip-path="url(#8aaa8b3be6)"><g clip-path="url(#442976c9eb)"><g clip-path="url(#ded781d319)"><path fill="#fafbfd" d="M 0.285156 0.945312 L 3.777344 0.933594 L 3.804688 11.53125 L 0.316406 11.539062 Z M 0.285156 0.945312 " fill-opacity="1" fill-rule="nonzero"/></g></g></g></g></g></g><g clip-path="url(#1118883e26)"><g clip-path="url(#b9df259c25)"><g transform="matrix(1, 0, 0, 1, 9, 17)"><g clip-path="url(#0104d73bae)"><g clip-path="url(#107fd9e787)"><g clip-path="url(#97e0a4a282)"><path fill="#fafbfd" d="M 0.292969 0.875 L 12.707031 0.84375 L 12.714844 4.210938 L 0.300781 4.242188 Z M 0.292969 0.875 " fill-opacity="1" fill-rule="nonzero"/></g></g></g></g></g></g><g clip-path="url(#5082174524)"><g clip-path="url(#6bd9b7ec2d)"><g transform="matrix(1, 0, 0, 1, 18, 13)"><g clip-path="url(#e2c79f35c9)"><g clip-path="url(#db5bdbc4a6)"><g clip-path="url(#895a9f77ef)"><path fill="#fafbfd" d="M 0.207031 0.179688 L 3.699219 0.171875 L 3.71875 8.214844 L 0.230469 8.226562 Z M 0.207031 0.179688 " fill-opacity="1" fill-rule="nonzero"/></g></g></g></g></g></g><g clip-path="url(#1a97211931)"><g clip-path="url(#d3e60e2b77)"><g transform="matrix(1, 0, 0, 1, 9, 22)"><g clip-path="url(#8dbfa8621b)"><g clip-path="url(#0857c43d59)"><g clip-path="url(#cb5f47e4f3)"><path fill="#fafbfd" d="M 0.304688 0.574219 L 15.242188 0.53125 L 15.253906 4.503906 L 0.316406 4.542969 Z M 0.304688 0.574219 " fill-opacity="1" fill-rule="nonzero"/></g></g></g></g></g></g><g clip-path="url(#dfba1c2b3c)"><g clip-path="url(#91ec967476)"><g transform="matrix(1, 0, 0, 1, 23, 11)"><g clip-path="url(#41b8af431f)"><g clip-path="url(#a3a0d49424)"><g clip-path="url(#74492f83a0)"><path fill="#fafbfd" d="M 0.1875 0.121094 L 3.679688 0.113281 L 3.722656 15.523438 L 0.230469 15.53125 Z M 0.1875 0.121094 " fill-opacity="1" fill-rule="nonzero"/></g></g></g></g></g></g><g clip-path="url(#fb023008b2)"><g clip-path="url(#58ea4be85d)"><g transform="matrix(1, 0, 0, 1, 9, 8)"><g clip-path="url(#fd8d383069)"><g clip-path="url(#ae94bfd213)"><g clip-path="url(#769ea4b2a9)"><path fill="#fafbfd" d="M 0.304688 0.53125 L 17.707031 0.484375 L 17.714844 3.835938 L 0.316406 3.882812 Z M 0.304688 0.53125 " fill-opacity="1" fill-rule="nonzero"/></g></g></g></g></g></g></svg>